<svg width="200" height="200" viewBox="0 0 200 200" fill="none" xmlns="http://www.w3.org/2000/svg">
<g clip-path="url(#clip0_25_10)">
<path d="M64.1753 200C55.6661 200.13 47.216 198.573 39.3167 195.42C31.4175 192.267 24.2269 187.581 18.1634 181.635C12.1 175.689 7.28475 168.602 3.998 160.785C0.711245 152.969 -0.981384 144.579 -0.981384 136.106C-0.981384 127.632 0.711245 119.242 3.998 111.426C7.28475 103.609 12.1 96.5218 18.1634 90.5758C24.2269 84.6298 31.4175 79.944 39.3167 76.7912C47.216 73.6384 55.6661 72.0814 64.1753 72.211V200Z" fill="#E78282"/>
<path d="M74.7261 135.993C83.1568 135.993 91.5049 134.339 99.2931 131.125C107.081 127.91 114.157 123.199 120.116 117.26C126.074 111.321 130.799 104.272 134.02 96.5135C137.241 88.7555 138.894 80.4414 138.886 72.0466H74.7261V135.993Z" fill="#EFA9A9"/>
<path d="M198.904 0.403499C198.509 0.141085 198.044 0.000728397 197.569 1.74845e-06H64.1753C55.7471 -0.00196159 47.4011 1.64957 39.6141 4.86025C31.8271 8.07093 24.7517 12.7778 18.7921 18.7121C12.8325 24.6463 8.10545 31.6916 4.88104 39.4454C1.65663 47.1992 -0.00196998 55.5097 1.75592e-06 63.902V109.437C3.70715 97.2334 10.9934 86.4115 20.9231 78.3616C30.8528 70.3116 42.9724 65.4011 55.7257 64.2606C63.7251 61.2718 75.7317 57.7748 93.4864 54.7411C132.673 48.0161 163.59 51.0498 198.904 0.403499Z" fill="#E78282"/>
<path d="M198.904 0.403503C163.59 51.0498 132.673 48.0161 93.4864 54.7261C75.7316 57.7598 63.725 61.2718 55.7256 64.2606C57.6017 64.0962 59.5227 64.0066 61.4438 64.0066H64.1753V63.9169H138.076C154.268 63.3829 169.657 56.7694 181.155 45.4042C192.652 34.039 199.406 18.7637 200.06 2.64515C200.1 2.20098 200.012 1.75471 199.808 1.358C199.603 0.961295 199.29 0.630362 198.904 0.403503Z" fill="url(#paint0_linear_25_10)"/>
</g>
<defs>
<linearGradient id="paint0_linear_25_10" x1="55.7256" y1="32.3246" x2="200" y2="32.3246" gradientUnits="userSpaceOnUse">
<stop stop-color="#FBEAEA"/>
<stop offset="1" stop-color="#E78282"/>
</linearGradient>
<clipPath id="clip0_25_10">
<rect width="200" height="200" fill="white"/>
</clipPath>
</defs>
</svg>
